<svg width="48" height="48" viewBox="0 0 48 48" fill="none" xmlns="http://www.w3.org/2000/svg">
<path d="M47.2741 29.8039C44.0697 42.6563 31.0494 50.4784 18.1941 47.2743C5.34336 44.0702 -2.47958 31.0514 0.726373 18.199C3.92933 5.34509 16.9496 -2.4785 29.8019 0.725602C42.6572 3.9297 50.4786 16.95 47.2741 29.8039Z" fill="#0AC18E" stroke="#D4D4D4" stroke-width="0.015625"/>
<path d="M31.9683 15.9338C30.8163 12.8621 27.9363 12.5742 24.4803 13.1501L23.3283 8.83057L20.7363 9.50249L21.7923 13.726C21.1203 13.918 20.3523 14.11 19.6803 14.302L18.6243 10.0784L16.0323 10.7504L17.1843 15.0699C16.6083 15.2619 11.9043 16.4137 11.9043 16.4137L12.6723 19.1974C12.6723 19.1974 14.5923 18.6215 14.5923 18.7175C15.6483 18.4295 16.1283 19.0054 16.4163 19.4854L19.4883 31.2921C19.4883 31.676 19.4883 32.252 18.7203 32.444L16.8003 32.9239L17.0883 36.1875L20.5443 35.3236C21.2163 35.1317 21.7923 35.0357 22.4643 34.8437L23.6163 39.1632L26.2083 38.4913L25.0563 34.1718C25.8243 33.9798 26.4963 33.7878 27.1683 33.6918L28.3203 38.0113L30.9123 37.3394L29.7603 33.0199C34.0803 31.5801 36.9603 29.7563 36.1923 25.4367C35.6163 21.9811 33.6963 20.9252 31.0083 21.0212C32.2563 19.7734 32.8323 18.1415 31.9683 15.9338ZM30.7203 26.2046C31.5843 29.4683 25.9203 30.5242 24.0963 31.0041L22.5603 25.2448C24.3843 24.7648 29.8563 22.845 30.7203 26.2046ZM27.4563 18.3335C28.2243 21.3092 23.5203 22.1731 21.9843 22.5571L20.6403 17.2776C22.0803 16.9897 26.5923 15.2619 27.4563 18.3335Z" fill="white"/>
</svg>
