<svg width="48" height="48" viewBox="0 0 48 48" fill="none" xmlns="http://www.w3.org/2000/svg">
<path d="M46.6421 29.6901C43.4936 42.1629 30.9018 49.79 18.3085 46.6418C5.83677 43.4928 -1.78965 30.9018 1.35808 18.3092C4.50655 5.83798 17.0961 -1.78856 29.688 1.35737C42.1679 4.63082 49.7881 17.2272 46.6421 29.6901Z" fill="#F0B90B" stroke="#D4D4D4" stroke-width="1.29694"/>
<path d="M9.58276 24.0993L12.8449 20.8367L16.107 24.0993L12.8449 27.3618L9.58276 24.0993ZM23.9746 16.2308L29.5394 21.7963L32.8015 18.5337L27.2367 12.9682L23.9746 9.70569L20.7124 12.9682L15.1476 18.5337L18.4097 21.7963L23.9746 16.2308ZM31.8421 24.0993L35.1042 20.8367L38.3664 24.0993L35.1042 27.3618L31.8421 24.0993ZM23.9746 31.9678L18.4097 26.4022L15.1476 29.6648L20.7124 35.2303L23.9746 38.4928L27.2367 35.2303L32.8015 29.6648L29.5394 26.4022L23.9746 31.9678ZM20.7124 24.0993L23.9746 20.8367L27.2367 24.0993L23.9746 27.3618L20.7124 24.0993Z" fill="white"/>
</svg>
