<svg width="48" height="48" viewBox="0 0 48 48" fill="none" xmlns="http://www.w3.org/2000/svg">
<path d="M1.20393 18.3182L1.20395 18.3181C4.34265 5.72647 17.0943 -1.93508 29.6828 1.20326L29.6828 1.20327C42.2743 4.3416 49.9353 17.0947 46.7966 29.6849C43.6579 42.2734 30.9049 49.9351 18.3132 46.7967C5.72619 43.6584 -1.93622 30.9067 1.20393 18.3182Z" fill="#F6921A" stroke="#D4D4D4"/>
<path d="M35.4242 21.0213C35.9042 17.8537 33.5042 16.1259 30.1442 14.974L31.2002 10.6545L28.6082 9.98256L27.5522 14.2061C26.8802 14.0141 26.1122 13.9181 25.4402 13.7261L26.4962 9.50261L23.9042 8.83069L22.8482 13.1502C22.2722 13.0542 17.5682 11.8064 17.5682 11.8064L16.8962 14.59L18.8162 15.07C19.8722 15.358 20.0642 16.0299 20.0642 16.6058L17.0882 28.4125C16.9922 28.7005 16.6082 29.1804 15.8402 29.0844L13.9202 28.6045L12.4802 31.6761L15.9362 32.54C16.6082 32.732 17.1842 32.828 17.8562 33.02L16.8002 37.4355L19.3922 38.1074L20.4482 33.7879C21.1202 33.9799 21.8882 34.1718 22.5602 34.3638L21.5042 38.6833L24.0962 39.3553L25.1522 35.0357C29.6642 35.8996 33.0242 35.5157 34.4642 31.4841C35.6162 28.2205 34.3682 26.3007 32.0642 25.0529C33.7922 24.4769 35.0402 23.3251 35.4242 21.0213ZM29.3762 29.4684C28.6082 32.732 23.0402 31.0042 21.3122 30.5243L22.7522 24.7649C24.5762 25.1489 30.2402 26.0128 29.3762 29.4684ZM30.2402 21.0213C29.4722 23.997 24.9602 22.4612 23.4242 22.0772L24.7682 16.7978C26.2082 17.1818 31.0082 17.8537 30.2402 21.0213Z" fill="white"/>
</svg>
