<svg width="48" height="48" viewBox="0 0 48 48" fill="none" xmlns="http://www.w3.org/2000/svg">
<path d="M47.5 24C47.5 36.9787 36.9787 47.5 24 47.5C11.0213 47.5 0.5 36.9787 0.5 24C0.5 11.0213 11.0213 0.5 24 0.5C36.9787 0.5 47.5 11.0213 47.5 24Z" fill="#F0B90B" stroke="#D4D4D4"/>
<path fill-rule="evenodd" clip-rule="evenodd" d="M14.976 18.624L24 9.59998L27.552 13.152L18.528 22.176L14.976 18.624ZM14.976 29.376L29.376 14.976L32.928 18.528L18.528 32.928L14.976 29.376ZM34.848 20.352L20.448 34.752L24 38.4L38.4 24L34.848 20.352ZM9.59998 24L13.152 20.448L16.704 24L13.152 27.552L9.59998 24Z" fill="black"/>
</svg>
