<svg width="48" height="48" viewBox="0 0 48 48" fill="none" xmlns="http://www.w3.org/2000/svg">
<path d="M0.5 24C0.5 11.0281 11.0281 0.5 24 0.5C36.9719 0.5 47.5 11.0281 47.5 24C47.5 36.9719 36.9719 47.5 24 47.5C11.0281 47.5 0.5 36.9719 0.5 24Z" fill="#687EE3" stroke="#D4D4D4"/>
<path d="M24 31.2V38.4L32.832 26.016L24 31.2Z" fill="#D2D8EC"/>
<path d="M24 20.256V29.568L32.832 24.288L24 20.256Z" fill="#C4C8D9"/>
<path d="M24 9.59998V20.256L32.832 24.288L24 9.59998Z" fill="#D0D6EA"/>
<path d="M24 31.2V38.4L15.168 26.016L24 31.2Z" fill="#DEE2F6"/>
<path d="M24 20.256V29.568L15.168 24.288L24 20.256Z" fill="#D2D8EC"/>
<path d="M24 9.59998V20.256L15.168 24.288L24 9.59998Z" fill="#DEE2F6"/>
</svg>
