<svg width="48" height="48" viewBox="0 0 48 48" fill="none" xmlns="http://www.w3.org/2000/svg">
<path d="M24 43.776C34.922 43.776 43.776 34.922 43.776 24C43.776 13.078 34.922 4.224 24 4.224C13.078 4.224 4.224 13.078 4.224 24C4.224 34.922 13.078 43.776 24 43.776Z" fill="#BEBEBE"/>
<path d="M11.0178 30.0383L13.5781 29.1137L11.4205 37.3128L11.2554 37.94H11.904H35.616H35.9985L36.0986 37.5709L37.6346 31.9069L37.8056 31.276H37.152H23.0148L24.6101 25.1465L28.7813 23.605L29.0274 23.5141L29.0924 23.2599L30.1484 19.1319L30.164 19.0709V19.008V18.912V18.1886L29.4873 18.4443L26.0796 19.7316L28.9949 8.86556L29.1638 8.236H28.512H19.584H19.2L19.1009 8.60698L15.0424 23.8028L11.8419 24.8697L11.588 24.9543L11.5176 25.2124L10.3656 29.4364L10.1123 30.3653L11.0178 30.0383ZM0.5 24C0.5 11.0281 11.0281 0.5 24 0.5C36.9719 0.5 47.5 11.0281 47.5 24C47.5 36.9719 36.9719 47.5 24 47.5C11.0281 47.5 0.5 36.9719 0.5 24Z" fill="white" stroke="#D4D4D4"/>
</svg>
