<svg width="48" height="48" viewBox="0 0 48 48" fill="none" xmlns="http://www.w3.org/2000/svg">
<circle cx="24.0002" cy="24" r="23.5" fill="white" stroke="#D4D4D4"/>
<path fill-rule="evenodd" clip-rule="evenodd" d="M44.5509 36.2783C40.3353 43.1903 32.6707 47.7983 24.0479 47.7983C15.4252 47.7983 7.76049 43.1903 3.54492 36.2783H13.7006V23.7023L23.9521 33.9743L34.2036 23.5103V36.2783H44.5509Z" fill="#4D4D4E"/>
<path fill-rule="evenodd" clip-rule="evenodd" d="M24.0481 0C37.2697 0 48.0002 10.752 48.0002 24C48.0002 26.592 47.617 29.184 46.7547 31.584H39.4733V11.424L23.8565 27.168L13.7008 16.8L8.43138 11.52V31.68H1.24575C0.479282 29.28 0.000244141 26.784 0.000244141 24.096C0.0960525 10.752 10.8266 0 24.0481 0Z" fill="#F48120"/>
<circle cx="24.0002" cy="24" r="23.5" stroke="#D4D4D4"/>
</svg>
