<svg width="48" height="48" viewBox="0 0 48 48" fill="none" xmlns="http://www.w3.org/2000/svg">
<path d="M47.5 24C47.5 36.9719 36.9719 47.5 24 47.5C11.0281 47.5 0.5 36.9719 0.5 24C0.5 11.0281 11.0281 0.5 24 0.5C36.9719 0.5 47.5 11.0281 47.5 24Z" fill="#53AE94" stroke="#D4D4D4"/>
<path d="M38.4 23.712C38.4 21.12 32.448 19.872 27.072 19.584V18.048L34.464 17.952C34.848 17.952 35.136 17.664 35.136 17.28V12.384C35.136 12.192 35.04 12 34.944 11.904C34.848 11.808 34.656 11.712 34.464 11.712L13.44 11.808C13.056 11.808 12.768 12.096 12.768 12.48V17.376C12.768 17.568 12.864 17.76 12.96 17.856C13.056 17.952 13.248 18.048 13.44 18.048L20.832 17.952V19.488C15.552 19.872 9.59998 21.216 9.59998 23.808C9.59998 25.152 11.136 26.208 14.112 27.072C16.032 27.552 18.336 27.84 20.832 28.032L20.928 36.576C20.928 36.96 21.216 37.248 21.6 37.248H26.4C26.592 37.248 26.784 37.152 26.88 37.056C26.976 36.96 27.072 36.768 27.072 36.576L26.976 28.032C33.216 27.648 38.4 26.112 38.4 23.712ZM14.208 16.704V13.248L33.792 13.152V16.608L26.4 16.704C26.016 16.704 25.728 16.992 25.728 17.376V23.232H22.368V17.376C22.368 17.184 22.272 16.992 22.176 16.896C22.08 16.8 21.888 16.704 21.696 16.704H14.208ZM25.824 35.904H22.464L22.368 28.128C22.752 28.128 23.232 28.128 23.712 28.128C23.808 28.128 24 28.128 24.096 28.128C24.672 28.128 25.248 28.128 25.824 28.128V35.904ZM24.096 26.784C15.744 26.88 11.136 24.96 11.136 24C11.136 23.232 14.112 21.6 21.024 21.12V24C21.024 24.192 21.12 24.384 21.216 24.48C21.312 24.576 21.504 24.672 21.696 24.672H26.496C26.88 24.672 27.168 24.384 27.168 24V21.12C34.08 21.504 37.056 23.136 37.056 23.904C37.056 24.672 32.448 26.688 24.096 26.784Z" fill="white"/>
</svg>
