<svg width="48" height="48" viewBox="0 0 48 48" fill="none" xmlns="http://www.w3.org/2000/svg">
<path d="M24 47.5C11.0281 47.5 0.5 36.9719 0.5 24C0.5 11.0281 11.0281 0.5 24 0.5C36.9719 0.5 47.5 11.0281 47.5 24C47.5 36.9719 36.9719 47.5 24 47.5Z" fill="#4523FF" stroke="#D4D4D4"/>
<path d="M36.192 13.44L32.064 15.552L12.384 25.536C12.384 25.056 12.288 24.48 12.288 24C12.288 17.568 17.472 12.288 24 12.192C26.016 12.192 28.032 12.672 29.76 13.728L32.064 12.576L32.448 12.384C26.016 7.77598 17.088 9.21598 12.384 15.648C10.656 18.144 9.69602 21.024 9.69602 24.096C9.69602 24.48 9.69602 24.864 9.69602 25.152C9.79202 26.208 9.21602 27.168 8.35202 27.648L7.104 28.32V31.296L10.752 29.472L11.904 28.896L13.056 28.32L33.792 17.76L36.096 16.608L40.896 14.112V11.136L36.192 13.44ZM40.992 16.896L14.208 30.624L11.904 31.776L7.104 34.272V37.248L11.904 34.848L16.032 32.736L35.808 22.56C35.808 23.04 35.904 23.616 35.904 24.096C35.904 30.624 30.624 35.808 24.096 35.808C22.08 35.808 20.16 35.232 18.336 34.272H18.144L15.648 35.808C22.08 40.416 31.008 39.072 35.712 32.64C37.44 30.144 38.4 27.264 38.4 24.192C38.4 23.808 38.4 23.424 38.4 23.136C38.304 22.08 38.88 21.12 39.84 20.64L41.088 19.968L40.992 16.896Z" fill="white"/>
</svg>
