<svg width="48" height="48" viewBox="0 0 48 48" fill="none" xmlns="http://www.w3.org/2000/svg">
<path d="M0.5 24C0.5 11.0281 11.0281 0.5 24 0.5C36.9719 0.5 47.5 11.0281 47.5 24C47.5 36.9719 36.9719 47.5 24 47.5C11.0281 47.5 0.5 36.9719 0.5 24Z" fill="white" stroke="#D4D4D4"/>
<path d="M26.4 10.368C24.48 11.52 23.424 13.44 23.424 15.648C23.424 16.8 23.904 17.856 24.384 18.912C24.864 19.776 25.056 21.408 23.52 22.176C22.368 22.848 20.928 22.368 20.256 21.312C19.584 20.448 18.816 19.488 17.76 18.816C15.84 17.664 13.632 17.664 11.712 18.816C9.79197 19.968 8.73596 21.984 8.73596 24.096C8.73596 26.208 9.88797 28.224 11.712 29.376C13.632 30.528 15.84 30.528 17.76 29.376C18.72 28.8 19.584 27.936 20.064 26.88C20.544 26.112 21.6959 25.056 23.3279 26.016C24.4799 26.688 24.768 28.128 24.192 29.28C23.616 30.24 23.3279 31.392 23.3279 32.544C23.3279 34.656 24.48 36.672 26.304 37.824C28.224 38.976 30.432 38.976 32.352 37.824C34.272 36.672 35.3279 34.752 35.3279 32.544C35.3279 30.432 34.176 28.416 32.352 27.264C31.392 26.688 30.24 26.496 28.992 26.496C28.032 26.496 26.6879 25.824 26.6879 24.192C26.6879 22.848 27.648 21.888 28.992 21.888C30.144 21.888 31.296 21.696 32.352 21.12C34.272 19.968 35.3279 18.048 35.3279 15.84C35.3279 13.632 34.176 11.712 32.352 10.56C31.488 9.98397 30.336 9.79197 29.376 9.79197C28.416 9.59997 27.264 9.79197 26.4 10.368Z" fill="url(#paint0_linear_90_89)"/>
<defs>
<linearGradient id="paint0_linear_90_89" x1="8.75999" y1="24.0028" x2="35.4001" y2="24.0028" gradientUnits="userSpaceOnUse">
<stop stop-color="#11AAE2"/>
<stop offset="0.59" stop-color="#0880B7"/>
<stop offset="1" stop-color="#016197"/>
</linearGradient>
</defs>
</svg>
